<svg width="156" height="34" viewBox="0 0 156 34" fill="none" xmlns="http://www.w3.org/2000/svg">
<path d="M2.25586 15V10.4541H2.66602L6.84277 15H8.49707L3.69141 9.8457L8.03906 5.13574H6.49414L2.66602 9.46973H2.25586V5.13574H1.02539V15H2.25586ZM12.0312 15.1367C13.9932 15.1367 15.3193 13.7148 15.3193 11.4453V11.4316C15.3193 9.16211 13.9863 7.75391 12.0244 7.75391C10.0625 7.75391 8.73633 9.16895 8.73633 11.4316V11.4453C8.73633 13.708 10.0557 15.1367 12.0312 15.1367ZM12.0381 14.084C10.7803 14.084 9.95312 13.1201 9.95312 11.4453V11.4316C9.95312 9.77051 10.7871 8.80664 12.0244 8.80664C13.2822 8.80664 14.1025 9.76367 14.1025 11.4316V11.4453C14.1025 13.1133 13.2891 14.084 12.0381 14.084ZM21.3213 15H22.5107V7.89062H21.3213V10.8232H17.8418V7.89062H16.6523V15H17.8418V11.8076H21.3213V15ZM24.1855 15H27.248C28.7588 15 29.6885 14.2139 29.6885 12.9629V12.9492C29.6885 12.0811 29.1006 11.4521 28.2051 11.3291V11.2744C28.8613 11.1377 29.374 10.4678 29.374 9.73633V9.72266C29.374 8.59473 28.5605 7.89062 27.2275 7.89062H24.1855V15ZM25.375 10.8643V8.875H27.0498C27.7949 8.875 28.1914 9.20996 28.1914 9.8457V9.85938C28.1914 10.543 27.7676 10.8643 26.8721 10.8643H25.375ZM25.375 14.0156V11.8486H26.9336C27.9727 11.8486 28.4717 12.1904 28.4717 12.9219V12.9355C28.4717 13.6465 28.0068 14.0156 27.1455 14.0156H25.375ZM33.9814 15.1367C35.5332 15.1367 36.6953 14.207 36.9277 13.0312L36.9414 12.9629H35.7725L35.752 13.0244C35.5469 13.6328 34.9111 14.084 34.0088 14.084C32.7441 14.084 31.9375 13.2295 31.9102 11.7666H37.0303V11.3291C37.0303 9.19629 35.8477 7.75391 33.9062 7.75391C31.9648 7.75391 30.707 9.26465 30.707 11.4658V11.4727C30.707 13.708 31.9375 15.1367 33.9814 15.1367ZM33.8994 8.80664C34.9385 8.80664 35.7041 9.45605 35.8203 10.8369H31.9307C32.0605 9.51074 32.8672 8.80664 33.8994 8.80664ZM38.3701 17.3926H39.5596V13.8105H39.5869C40.0312 14.6309 40.8584 15.1367 41.8633 15.1367C43.6475 15.1367 44.8643 13.6943 44.8643 11.4521V11.4453C44.8643 9.20312 43.6611 7.75391 41.8428 7.75391C40.8242 7.75391 40.0312 8.2666 39.5869 9.09375H39.5596V7.89062H38.3701V17.3926ZM41.6104 14.084C40.4141 14.084 39.5527 13.0381 39.5527 11.4521V11.4453C39.5527 9.85254 40.4072 8.80664 41.6104 8.80664C42.8682 8.80664 43.6475 9.81152 43.6475 11.4453V11.4521C43.6475 13.0723 42.8682 14.084 41.6104 14.084ZM49.1504 15.1367C50.7568 15.1367 51.9258 14.0908 52.1172 12.7373L52.124 12.6895H50.9551L50.9414 12.7441C50.7432 13.5371 50.1211 14.084 49.1504 14.084C47.9199 14.084 47.0723 13.1064 47.0723 11.4521V11.4453C47.0723 9.83203 47.8994 8.80664 49.1367 8.80664C50.1826 8.80664 50.7568 9.43555 50.9346 10.1465L50.9482 10.2012H52.1104L52.1035 10.1465C51.9531 8.92969 50.9072 7.75391 49.1367 7.75391C47.1611 7.75391 45.8555 9.18945 45.8555 11.4316V11.4385C45.8555 13.7012 47.1338 15.1367 49.1504 15.1367ZM53.3477 15H54.5234L58.0645 9.71582H58.1191V15H59.3086V7.89062H58.1328L54.5918 13.1748H54.5371V7.89062H53.3477V15ZM64.9824 15H66.1719V7.89062H63.5264C61.8926 7.89062 60.8398 8.78613 60.8398 10.2422V10.2559C60.8398 11.2266 61.4482 11.9648 62.4531 12.252L60.4707 15H61.8447L63.6494 12.4707H64.9824V15ZM63.5332 11.4863C62.6172 11.4863 62.0566 10.9668 62.0566 10.2354V10.2217C62.0566 9.37402 62.6104 8.875 63.5332 8.875H64.9824V11.4863H63.5332ZM70.7109 15H73.7734C75.2842 15 76.2139 14.2139 76.2139 12.9629V12.9492C76.2139 12.0811 75.626 11.4521 74.7305 11.3291V11.2744C75.3867 11.1377 75.8994 10.4678 75.8994 9.73633V9.72266C75.8994 8.59473 75.0859 7.89062 73.7529 7.89062H70.7109V15ZM71.9004 10.8643V8.875H73.5752C74.3203 8.875 74.7168 9.20996 74.7168 9.8457V9.85938C74.7168 10.543 74.293 10.8643 73.3975 10.8643H71.9004ZM71.9004 14.0156V11.8486H73.459C74.498 11.8486 74.9971 12.1904 74.9971 12.9219V12.9355C74.9971 13.6465 74.5322 14.0156 73.6709 14.0156H71.9004ZM82.8174 15.1367C84.4785 15.1367 85.5928 14.248 85.5928 12.9287V12.915C85.5928 12.0947 85.0869 11.5273 84.1709 11.3291V11.2744C84.8955 11.1104 85.3945 10.4746 85.3945 9.71582V9.70215C85.3945 8.49902 84.4443 7.75391 82.8926 7.75391C81.416 7.75391 80.3838 8.49219 80.2197 9.64062L80.2129 9.68848H81.3682L81.375 9.6543C81.4844 9.10059 82.0791 8.73828 82.8926 8.73828C83.7334 8.73828 84.2324 9.13477 84.2324 9.79785V9.81152C84.2324 10.5156 83.7607 10.8711 82.8174 10.8711H81.751V11.8555H82.8174C83.9043 11.8555 84.4238 12.2109 84.4238 12.9697V12.9834C84.4238 13.7012 83.8018 14.1523 82.8174 14.1523C81.9697 14.1523 81.4023 13.8174 81.2314 13.2227L81.2109 13.1543H80.0078L80.0146 13.209C80.1582 14.3711 81.2725 15.1367 82.8174 15.1367ZM89.0381 15.1367C89.9883 15.1367 90.8428 14.624 91.2598 13.8447H91.2871V15H92.4766V10.085C92.4766 8.66309 91.4238 7.75391 89.7422 7.75391C88.0674 7.75391 87.0488 8.69727 86.9463 9.86621L86.9395 9.94141H88.0879L88.1016 9.87988C88.2383 9.24414 88.8125 8.80664 89.7285 8.80664C90.7197 8.80664 91.2871 9.33301 91.2871 10.2012V10.7959L89.25 10.9121C87.6162 11.0078 86.6729 11.7666 86.6729 12.9766V12.9902C86.6729 14.2822 87.623 15.1367 89.0381 15.1367ZM87.8896 12.9902V12.9766C87.8896 12.3135 88.4365 11.8896 89.3867 11.835L91.2871 11.7188V12.2998C91.2871 13.332 90.4258 14.1045 89.3047 14.1045C88.4502 14.1045 87.8896 13.6738 87.8896 12.9902ZM95.5801 11.7188L98.417 15H99.9209L96.6533 11.2539L99.8252 7.89062H98.3828L95.5801 10.8984H95.3066V7.89062H94.1172V15H95.3066V11.7188H95.5801ZM102.792 15.1367C103.742 15.1367 104.597 14.624 105.014 13.8447H105.041V15H106.23V10.085C106.23 8.66309 105.178 7.75391 103.496 7.75391C101.821 7.75391 100.803 8.69727 100.7 9.86621L100.693 9.94141H101.842L101.855 9.87988C101.992 9.24414 102.566 8.80664 103.482 8.80664C104.474 8.80664 105.041 9.33301 105.041 10.2012V10.7959L103.004 10.9121C101.37 11.0078 100.427 11.7666 100.427 12.9766V12.9902C100.427 14.2822 101.377 15.1367 102.792 15.1367ZM101.644 12.9902V12.9766C101.644 12.3135 102.19 11.8896 103.141 11.835L105.041 11.7188V12.2998C105.041 13.332 104.18 14.1045 103.059 14.1045C102.204 14.1045 101.644 13.6738 101.644 12.9902ZM110.243 15.1367C111.904 15.1367 113.019 14.248 113.019 12.9287V12.915C113.019 12.0947 112.513 11.5273 111.597 11.3291V11.2744C112.321 11.1104 112.82 10.4746 112.82 9.71582V9.70215C112.82 8.49902 111.87 7.75391 110.318 7.75391C108.842 7.75391 107.81 8.49219 107.646 9.64062L107.639 9.68848H108.794L108.801 9.6543C108.91 9.10059 109.505 8.73828 110.318 8.73828C111.159 8.73828 111.658 9.13477 111.658 9.79785V9.81152C111.658 10.5156 111.187 10.8711 110.243 10.8711H109.177V11.8555H110.243C111.33 11.8555 111.85 12.2109 111.85 12.9697V12.9834C111.85 13.7012 111.228 14.1523 110.243 14.1523C109.396 14.1523 108.828 13.8174 108.657 13.2227L108.637 13.1543H107.434L107.44 13.209C107.584 14.3711 108.698 15.1367 110.243 15.1367Z" fill="#122945"/>
<path d="M120.784 15.1641C122.801 15.1641 124.277 13.7559 124.277 11.8145V11.8008C124.277 9.92773 122.883 8.54004 121.003 8.54004C119.663 8.54004 118.651 9.25098 118.255 10.126H118.228C118.228 10.0508 118.228 9.98242 118.234 9.91406C118.289 7.84277 119.014 6.05859 120.853 6.05859C121.864 6.05859 122.568 6.56445 122.862 7.37793L122.89 7.45312H124.141L124.12 7.36426C123.792 5.92871 122.541 4.97168 120.866 4.97168C118.453 4.97168 117.038 6.91309 117.038 10.2354V10.249C117.038 13.9062 118.966 15.1641 120.784 15.1641ZM118.521 11.8008V11.7939C118.521 10.5361 119.499 9.62012 120.791 9.62012C122.09 9.62012 123.026 10.543 123.026 11.8281V11.8418C123.026 13.0859 122.028 14.0703 120.771 14.0703C119.506 14.0703 118.521 13.0654 118.521 11.8008ZM126.424 15H127.716L132.104 6.27734V5.13574H125.576V6.22949H130.888V6.25684L126.424 15ZM135.331 10.0029C136.575 10.0029 137.327 9.05273 137.327 7.52832V7.52148C137.327 6.00391 136.575 5.05371 135.331 5.05371C134.087 5.05371 133.335 6.00391 133.335 7.52148V7.52832C133.335 9.05273 134.087 10.0029 135.331 10.0029ZM135.775 15L142.092 5.13574H140.984L134.654 15H135.775ZM135.331 9.18262C134.668 9.18262 134.285 8.56738 134.285 7.52832V7.52148C134.285 6.48242 134.668 5.87402 135.331 5.87402C135.994 5.87402 136.377 6.48242 136.377 7.52148V7.52832C136.377 8.56738 135.994 9.18262 135.331 9.18262ZM141.408 15.082C142.652 15.082 143.404 14.1318 143.404 12.6074V12.6006C143.404 11.083 142.652 10.1328 141.408 10.1328C140.164 10.1328 139.412 11.083 139.412 12.6006V12.6074C139.412 14.1318 140.164 15.082 141.408 15.082ZM141.408 14.2617C140.745 14.2617 140.362 13.6465 140.362 12.6074V12.6006C140.362 11.5615 140.745 10.9531 141.408 10.9531C142.071 10.9531 142.454 11.5615 142.454 12.6006V12.6074C142.454 13.6465 142.071 14.2617 141.408 14.2617Z" fill="#EA1A4F"/>
<path d="M0 31C0 29.3431 1.34315 28 3 28H153C154.657 28 156 29.3431 156 31C156 32.6569 154.657 34 153 34H3C1.34315 34 0 32.6569 0 31Z" fill="#DEE6F5"/>
<path d="M0 31C0 29.3431 1.34315 28 3 28H78V34H3C1.34315 34 0 32.6569 0 31Z" fill="#EA1A4F"/>
</svg>
