<svg width="162" height="34" viewBox="0 0 162 34" fill="none" xmlns="http://www.w3.org/2000/svg">
<path d="M1.02539 15H2.25586V10.5088H7.66992V15H8.90039V5.13574H7.66992V9.40137H2.25586V5.13574H1.02539V15ZM13.7129 15.1367C15.6748 15.1367 17.001 13.7148 17.001 11.4453V11.4316C17.001 9.16211 15.668 7.75391 13.7061 7.75391C11.7441 7.75391 10.418 9.16895 10.418 11.4316V11.4453C10.418 13.708 11.7373 15.1367 13.7129 15.1367ZM13.7197 14.084C12.4619 14.084 11.6348 13.1201 11.6348 11.4453V11.4316C11.6348 9.77051 12.4688 8.80664 13.7061 8.80664C14.9639 8.80664 15.7842 9.76367 15.7842 11.4316V11.4453C15.7842 13.1133 14.9707 14.084 13.7197 14.084ZM18.334 15H21.3965C22.9072 15 23.8369 14.2139 23.8369 12.9629V12.9492C23.8369 12.0811 23.249 11.4521 22.3535 11.3291V11.2744C23.0098 11.1377 23.5225 10.4678 23.5225 9.73633V9.72266C23.5225 8.59473 22.709 7.89062 21.376 7.89062H18.334V15ZM19.5234 10.8643V8.875H21.1982C21.9434 8.875 22.3398 9.20996 22.3398 9.8457V9.85938C22.3398 10.543 21.916 10.8643 21.0205 10.8643H19.5234ZM19.5234 14.0156V11.8486H21.082C22.1211 11.8486 22.6201 12.1904 22.6201 12.9219V12.9355C22.6201 13.6465 22.1553 14.0156 21.2939 14.0156H19.5234ZM25.1973 15H27.7197C29.3467 15 30.3926 14.0635 30.3926 12.5869V12.5732C30.3926 11.0967 29.3467 10.1602 27.7197 10.1602H26.3867V7.89062H25.1973V15ZM31.2949 15H32.4844V7.89062H31.2949V15ZM27.6992 11.1445C28.6016 11.1445 29.1758 11.7051 29.1758 12.5732V12.5869C29.1758 13.4482 28.6084 14.0156 27.6992 14.0156H26.3867V11.1445H27.6992ZM37.085 15.1367C38.6367 15.1367 39.7988 14.207 40.0312 13.0312L40.0449 12.9629H38.876L38.8555 13.0244C38.6504 13.6328 38.0146 14.084 37.1123 14.084C35.8477 14.084 35.041 13.2295 35.0137 11.7666H40.1338V11.3291C40.1338 9.19629 38.9512 7.75391 37.0098 7.75391C35.0684 7.75391 33.8105 9.26465 33.8105 11.4658V11.4727C33.8105 13.708 35.041 15.1367 37.085 15.1367ZM37.0029 8.80664C38.042 8.80664 38.8076 9.45605 38.9238 10.8369H35.0342C35.1641 9.51074 35.9707 8.80664 37.0029 8.80664ZM46.71 15.1367C48.3711 15.1367 49.4854 14.248 49.4854 12.9287V12.915C49.4854 12.0947 48.9795 11.5273 48.0635 11.3291V11.2744C48.7881 11.1104 49.2871 10.4746 49.2871 9.71582V9.70215C49.2871 8.49902 48.3369 7.75391 46.7852 7.75391C45.3086 7.75391 44.2764 8.49219 44.1123 9.64062L44.1055 9.68848H45.2607L45.2676 9.6543C45.377 9.10059 45.9717 8.73828 46.7852 8.73828C47.626 8.73828 48.125 9.13477 48.125 9.79785V9.81152C48.125 10.5156 47.6533 10.8711 46.71 10.8711H45.6436V11.8555H46.71C47.7969 11.8555 48.3164 12.2109 48.3164 12.9697V12.9834C48.3164 13.7012 47.6943 14.1523 46.71 14.1523C45.8623 14.1523 45.2949 13.8174 45.124 13.2227L45.1035 13.1543H43.9004L43.9072 13.209C44.0508 14.3711 45.165 15.1367 46.71 15.1367ZM50.8457 15H53.9082C55.4189 15 56.3486 14.2139 56.3486 12.9629V12.9492C56.3486 12.0811 55.7607 11.4521 54.8652 11.3291V11.2744C55.5215 11.1377 56.0342 10.4678 56.0342 9.73633V9.72266C56.0342 8.59473 55.2207 7.89062 53.8877 7.89062H50.8457V15ZM52.0352 10.8643V8.875H53.71C54.4551 8.875 54.8516 9.20996 54.8516 9.8457V9.85938C54.8516 10.543 54.4277 10.8643 53.5322 10.8643H52.0352ZM52.0352 14.0156V11.8486H53.5938C54.6328 11.8486 55.1318 12.1904 55.1318 12.9219V12.9355C55.1318 13.6465 54.667 14.0156 53.8057 14.0156H52.0352ZM60.6621 15.1367C62.624 15.1367 63.9502 13.7148 63.9502 11.4453V11.4316C63.9502 9.16211 62.6172 7.75391 60.6553 7.75391C58.6934 7.75391 57.3672 9.16895 57.3672 11.4316V11.4453C57.3672 13.708 58.6865 15.1367 60.6621 15.1367ZM60.6689 14.084C59.4111 14.084 58.584 13.1201 58.584 11.4453V11.4316C58.584 9.77051 59.418 8.80664 60.6553 8.80664C61.9131 8.80664 62.7334 9.76367 62.7334 11.4316V11.4453C62.7334 13.1133 61.9199 14.084 60.6689 14.084ZM69.9521 15H71.1416V7.89062H69.9521V10.8232H66.4727V7.89062H65.2832V15H66.4727V11.8076H69.9521V15ZM74.2793 11.7188L77.1162 15H78.6201L75.3525 11.2539L78.5244 7.89062H77.082L74.2793 10.8984H74.0059V7.89062H72.8164V15H74.0059V11.7188H74.2793ZM79.6113 15H80.7871L84.3281 9.71582H84.3828V15H85.5723V7.89062H84.3965L80.8555 13.1748H80.8008V7.89062H79.6113V15Z" fill="#122945"/>
<path d="M90.0771 15H96.585V13.9062H91.7656V13.8789L94.1104 11.4727C95.9219 9.62012 96.4209 8.80664 96.4209 7.72656V7.71289C96.4209 6.16797 95.1152 4.97168 93.3311 4.97168C91.4922 4.97168 90.0156 6.23633 90.0156 7.94531V7.98633H91.2051V7.95215C91.2051 6.89258 92.1211 6.04492 93.3516 6.04492C94.4248 6.04492 95.1836 6.76953 95.1904 7.77441V7.78809C95.1904 8.6084 94.8828 9.1416 93.5498 10.5293L90.0771 14.1523V15ZM101.445 15.1641C103.715 15.1641 105.075 13.2021 105.075 10.0713V10.0576C105.075 6.92676 103.715 4.97168 101.445 4.97168C99.1758 4.97168 97.8291 6.92676 97.8291 10.0576V10.0713C97.8291 13.2021 99.1758 15.1641 101.445 15.1641ZM101.445 14.0908C99.9414 14.0908 99.0664 12.5459 99.0664 10.0713V10.0576C99.0664 7.58301 99.9414 6.05176 101.445 6.05176C102.949 6.05176 103.838 7.58301 103.838 10.0576V10.0713C103.838 12.5459 102.949 14.0908 101.445 14.0908ZM109.402 15H110.578L114.119 9.71582H114.174V15H115.363V7.89062H114.188L110.646 13.1748H110.592V7.89062H109.402V15ZM119.403 15.1367C121.064 15.1367 122.179 14.248 122.179 12.9287V12.915C122.179 12.0947 121.673 11.5273 120.757 11.3291V11.2744C121.481 11.1104 121.98 10.4746 121.98 9.71582V9.70215C121.98 8.49902 121.03 7.75391 119.479 7.75391C118.002 7.75391 116.97 8.49219 116.806 9.64062L116.799 9.68848H117.954L117.961 9.6543C118.07 9.10059 118.665 8.73828 119.479 8.73828C120.319 8.73828 120.818 9.13477 120.818 9.79785V9.81152C120.818 10.5156 120.347 10.8711 119.403 10.8711H118.337V11.8555H119.403C120.49 11.8555 121.01 12.2109 121.01 12.9697V12.9834C121.01 13.7012 120.388 14.1523 119.403 14.1523C118.556 14.1523 117.988 13.8174 117.817 13.2227L117.797 13.1543H116.594L116.601 13.209C116.744 14.3711 117.858 15.1367 119.403 15.1367ZM129.698 15.1641C131.674 15.1641 133.123 13.9473 133.123 12.2998V12.2861C133.123 10.8848 132.146 9.98926 130.71 9.86621V9.83887C131.94 9.5791 132.802 8.74512 132.802 7.52832V7.51465C132.802 6.01758 131.564 4.97168 129.685 4.97168C127.839 4.97168 126.567 6.04492 126.41 7.65137L126.403 7.71973H127.586L127.593 7.65137C127.695 6.65332 128.522 6.03809 129.685 6.03809C130.888 6.03809 131.564 6.63281 131.564 7.66504V7.67871C131.564 8.66309 130.744 9.3877 129.568 9.3877H128.386V10.4268H129.623C131.004 10.4268 131.872 11.1035 131.872 12.3135V12.3271C131.872 13.373 130.99 14.0977 129.698 14.0977C128.386 14.0977 127.497 13.4277 127.395 12.457L127.388 12.3887H126.205L126.212 12.4707C126.342 14.0293 127.661 15.1641 129.698 15.1641ZM138.1 15.1641C140.369 15.1641 141.729 13.2021 141.729 10.0713V10.0576C141.729 6.92676 140.369 4.97168 138.1 4.97168C135.83 4.97168 134.483 6.92676 134.483 10.0576V10.0713C134.483 13.2021 135.83 15.1641 138.1 15.1641ZM138.1 14.0908C136.596 14.0908 135.721 12.5459 135.721 10.0713V10.0576C135.721 7.58301 136.596 6.05176 138.1 6.05176C139.604 6.05176 140.492 7.58301 140.492 10.0576V10.0713C140.492 12.5459 139.604 14.0908 138.1 14.0908ZM146.057 15H154.834V7.89062H153.645V14.0156H151.04V7.89062H149.851V14.0156H147.246V7.89062H146.057V15ZM161.704 7.89062H155.935V8.875H158.225V15H159.414V8.875H161.704V7.89062Z" fill="#00A775"/>
<path d="M0 31C0 29.3431 1.34315 28 3 28H153C154.657 28 156 29.3431 156 31C156 32.6569 154.657 34 153 34H3C1.34315 34 0 32.6569 0 31Z" fill="#DEE6F5"/>
<path d="M0 31C0 29.3431 1.34315 28 3 28H68V34H3C1.34314 34 0 32.6569 0 31Z" fill="#28A879"/>
</svg>
