<svg width="164" height="34" viewBox="0 0 164 34" fill="none" xmlns="http://www.w3.org/2000/svg">
<path d="M2.25586 15V10.4541H2.66602L6.84277 15H8.49707L3.69141 9.8457L8.03906 5.13574H6.49414L2.66602 9.46973H2.25586V5.13574H1.02539V15H2.25586ZM11.3682 15.1367C12.3184 15.1367 13.1729 14.624 13.5898 13.8447H13.6172V15H14.8066V10.085C14.8066 8.66309 13.7539 7.75391 12.0723 7.75391C10.3975 7.75391 9.37891 8.69727 9.27637 9.86621L9.26953 9.94141H10.418L10.4316 9.87988C10.5684 9.24414 11.1426 8.80664 12.0586 8.80664C13.0498 8.80664 13.6172 9.33301 13.6172 10.2012V10.7959L11.5801 10.9121C9.94629 11.0078 9.00293 11.7666 9.00293 12.9766V12.9902C9.00293 14.2822 9.95312 15.1367 11.3682 15.1367ZM10.2197 12.9902V12.9766C10.2197 12.3135 10.7666 11.8896 11.7168 11.835L13.6172 11.7188V12.2998C13.6172 13.332 12.7559 14.1045 11.6348 14.1045C10.7803 14.1045 10.2197 13.6738 10.2197 12.9902ZM21.8682 15V7.89062H20.6787V10.8848C20.3506 11.2129 19.7148 11.4316 19.0859 11.4316C17.999 11.4316 17.459 10.9326 17.459 9.9209V7.89062H16.2695V10.0029C16.2695 11.5137 17.1514 12.4844 18.8604 12.4844C19.5371 12.4844 20.207 12.2861 20.6514 11.8896H20.6787V15H21.8682ZM26.4756 15.1367C28.0273 15.1367 29.1895 14.207 29.4219 13.0312L29.4355 12.9629H28.2666L28.2461 13.0244C28.041 13.6328 27.4053 14.084 26.5029 14.084C25.2383 14.084 24.4316 13.2295 24.4043 11.7666H29.5244V11.3291C29.5244 9.19629 28.3418 7.75391 26.4004 7.75391C24.459 7.75391 23.2012 9.26465 23.2012 11.4658V11.4727C23.2012 13.708 24.4316 15.1367 26.4756 15.1367ZM26.3936 8.80664C27.4326 8.80664 28.1982 9.45605 28.3145 10.8369H24.4248C24.5547 9.51074 25.3613 8.80664 26.3936 8.80664ZM33.8105 15.1367C35.417 15.1367 36.5859 14.0908 36.7773 12.7373L36.7842 12.6895H35.6152L35.6016 12.7441C35.4033 13.5371 34.7812 14.084 33.8105 14.084C32.5801 14.084 31.7324 13.1064 31.7324 11.4521V11.4453C31.7324 9.83203 32.5596 8.80664 33.7969 8.80664C34.8428 8.80664 35.417 9.43555 35.5947 10.1465L35.6084 10.2012H36.7705L36.7637 10.1465C36.6133 8.92969 35.5674 7.75391 33.7969 7.75391C31.8213 7.75391 30.5156 9.18945 30.5156 11.4316V11.4385C30.5156 13.7012 31.7939 15.1367 33.8105 15.1367ZM43.0732 7.89062H37.3037V8.875H39.5938V15H40.7832V8.875H43.0732V7.89062ZM44.1738 15H47.2363C48.7471 15 49.6768 14.2139 49.6768 12.9629V12.9492C49.6768 12.0811 49.0889 11.4521 48.1934 11.3291V11.2744C48.8496 11.1377 49.3623 10.4678 49.3623 9.73633V9.72266C49.3623 8.59473 48.5488 7.89062 47.2158 7.89062H44.1738V15ZM45.3633 10.8643V8.875H47.0381C47.7832 8.875 48.1797 9.20996 48.1797 9.8457V9.85938C48.1797 10.543 47.7559 10.8643 46.8604 10.8643H45.3633ZM45.3633 14.0156V11.8486H46.9219C47.9609 11.8486 48.46 12.1904 48.46 12.9219V12.9355C48.46 13.6465 47.9951 14.0156 47.1338 14.0156H45.3633ZM53.9902 15.1367C55.9521 15.1367 57.2783 13.7148 57.2783 11.4453V11.4316C57.2783 9.16211 55.9453 7.75391 53.9834 7.75391C52.0215 7.75391 50.6953 9.16895 50.6953 11.4316V11.4453C50.6953 13.708 52.0146 15.1367 53.9902 15.1367ZM53.9971 14.084C52.7393 14.084 51.9121 13.1201 51.9121 11.4453V11.4316C51.9121 9.77051 52.7461 8.80664 53.9834 8.80664C55.2412 8.80664 56.0615 9.76367 56.0615 11.4316V11.4453C56.0615 13.1133 55.248 14.084 53.9971 14.084ZM61.4893 17.3926H62.6787V13.8105H62.7061C63.1504 14.6309 63.9775 15.1367 64.9824 15.1367C66.7666 15.1367 67.9834 13.6943 67.9834 11.4521V11.4453C67.9834 9.20312 66.7803 7.75391 64.9619 7.75391C63.9434 7.75391 63.1504 8.2666 62.7061 9.09375H62.6787V7.89062H61.4893V17.3926ZM64.7295 14.084C63.5332 14.084 62.6719 13.0381 62.6719 11.4521V11.4453C62.6719 9.85254 63.5264 8.80664 64.7295 8.80664C65.9873 8.80664 66.7666 9.81152 66.7666 11.4453V11.4521C66.7666 13.0723 65.9873 14.084 64.7295 14.084ZM71.4014 15.1367C72.3516 15.1367 73.2061 14.624 73.623 13.8447H73.6504V15H74.8398V10.085C74.8398 8.66309 73.7871 7.75391 72.1055 7.75391C70.4307 7.75391 69.4121 8.69727 69.3096 9.86621L69.3027 9.94141H70.4512L70.4648 9.87988C70.6016 9.24414 71.1758 8.80664 72.0918 8.80664C73.083 8.80664 73.6504 9.33301 73.6504 10.2012V10.7959L71.6133 10.9121C69.9795 11.0078 69.0361 11.7666 69.0361 12.9766V12.9902C69.0361 14.2822 69.9863 15.1367 71.4014 15.1367ZM70.2529 12.9902V12.9766C70.2529 12.3135 70.7998 11.8896 71.75 11.835L73.6504 11.7188V12.2998C73.6504 13.332 72.7891 14.1045 71.668 14.1045C70.8135 14.1045 70.2529 13.6738 70.2529 12.9902ZM78.8525 15.1367C80.5137 15.1367 81.6279 14.248 81.6279 12.9287V12.915C81.6279 12.0947 81.1221 11.5273 80.2061 11.3291V11.2744C80.9307 11.1104 81.4297 10.4746 81.4297 9.71582V9.70215C81.4297 8.49902 80.4795 7.75391 78.9277 7.75391C77.4512 7.75391 76.4189 8.49219 76.2549 9.64062L76.248 9.68848H77.4033L77.4102 9.6543C77.5195 9.10059 78.1143 8.73828 78.9277 8.73828C79.7686 8.73828 80.2676 9.13477 80.2676 9.79785V9.81152C80.2676 10.5156 79.7959 10.8711 78.8525 10.8711H77.7861V11.8555H78.8525C79.9395 11.8555 80.459 12.2109 80.459 12.9697V12.9834C80.459 13.7012 79.8369 14.1523 78.8525 14.1523C78.0049 14.1523 77.4375 13.8174 77.2666 13.2227L77.2461 13.1543H76.043L76.0498 13.209C76.1934 14.3711 77.3076 15.1367 78.8525 15.1367ZM87.5615 8.875V7.89062H82.9883V15H84.1777V8.875H87.5615ZM91.5332 15.1367C93.4951 15.1367 94.8213 13.7148 94.8213 11.4453V11.4316C94.8213 9.16211 93.4883 7.75391 91.5264 7.75391C89.5645 7.75391 88.2383 9.16895 88.2383 11.4316V11.4453C88.2383 13.708 89.5576 15.1367 91.5332 15.1367ZM91.54 14.084C90.2822 14.084 89.4551 13.1201 89.4551 11.4453V11.4316C89.4551 9.77051 90.2891 8.80664 91.5264 8.80664C92.7842 8.80664 93.6045 9.76367 93.6045 11.4316V11.4453C93.6045 13.1133 92.791 14.084 91.54 14.084ZM96.1543 15H99.2168C100.728 15 101.657 14.2139 101.657 12.9629V12.9492C101.657 12.0811 101.069 11.4521 100.174 11.3291V11.2744C100.83 11.1377 101.343 10.4678 101.343 9.73633V9.72266C101.343 8.59473 100.529 7.89062 99.1963 7.89062H96.1543V15ZM97.3438 10.8643V8.875H99.0186C99.7637 8.875 100.16 9.20996 100.16 9.8457V9.85938C100.16 10.543 99.7363 10.8643 98.8408 10.8643H97.3438ZM97.3438 14.0156V11.8486H98.9023C99.9414 11.8486 100.44 12.1904 100.44 12.9219V12.9355C100.44 13.6465 99.9756 14.0156 99.1143 14.0156H97.3438ZM105.971 15.1367C107.933 15.1367 109.259 13.7148 109.259 11.4453V11.4316C109.259 9.16211 107.926 7.75391 105.964 7.75391C104.002 7.75391 102.676 9.16895 102.676 11.4316V11.4453C102.676 13.708 103.995 15.1367 105.971 15.1367ZM105.978 14.084C104.72 14.084 103.893 13.1201 103.893 11.4453V11.4316C103.893 9.77051 104.727 8.80664 105.964 8.80664C107.222 8.80664 108.042 9.76367 108.042 11.4316V11.4453C108.042 13.1133 107.229 14.084 105.978 14.084ZM110.599 17.3926H111.788V13.8105H111.815C112.26 14.6309 113.087 15.1367 114.092 15.1367C115.876 15.1367 117.093 13.6943 117.093 11.4521V11.4453C117.093 9.20312 115.89 7.75391 114.071 7.75391C113.053 7.75391 112.26 8.2666 111.815 9.09375H111.788V7.89062H110.599V17.3926ZM113.839 14.084C112.643 14.084 111.781 13.0381 111.781 11.4521V11.4453C111.781 9.85254 112.636 8.80664 113.839 8.80664C115.097 8.80664 115.876 9.81152 115.876 11.4453V11.4521C115.876 13.0723 115.097 14.084 113.839 14.084ZM121.379 15.1367C123.341 15.1367 124.667 13.7148 124.667 11.4453V11.4316C124.667 9.16211 123.334 7.75391 121.372 7.75391C119.41 7.75391 118.084 9.16895 118.084 11.4316V11.4453C118.084 13.708 119.403 15.1367 121.379 15.1367ZM121.386 14.084C120.128 14.084 119.301 13.1201 119.301 11.4453V11.4316C119.301 9.77051 120.135 8.80664 121.372 8.80664C122.63 8.80664 123.45 9.76367 123.45 11.4316V11.4453C123.45 13.1133 122.637 14.084 121.386 14.084ZM126 15H129.062C130.573 15 131.503 14.2139 131.503 12.9629V12.9492C131.503 12.0811 130.915 11.4521 130.02 11.3291V11.2744C130.676 11.1377 131.188 10.4678 131.188 9.73633V9.72266C131.188 8.59473 130.375 7.89062 129.042 7.89062H126V15ZM127.189 10.8643V8.875H128.864C129.609 8.875 130.006 9.20996 130.006 9.8457V9.85938C130.006 10.543 129.582 10.8643 128.687 10.8643H127.189ZM127.189 14.0156V11.8486H128.748C129.787 11.8486 130.286 12.1904 130.286 12.9219V12.9355C130.286 13.6465 129.821 14.0156 128.96 14.0156H127.189Z" fill="#122945"/>
<path d="M140.39 15H141.579V12.9492H142.974V11.8691H141.579V5.13574H139.761L135.434 11.835V12.9492H140.39V15ZM136.65 11.8691V11.8418L140.349 6.18848H140.39V11.8691H136.65ZM147.602 15.1641C149.871 15.1641 151.231 13.2021 151.231 10.0713V10.0576C151.231 6.92676 149.871 4.97168 147.602 4.97168C145.332 4.97168 143.985 6.92676 143.985 10.0576V10.0713C143.985 13.2021 145.332 15.1641 147.602 15.1641ZM147.602 14.0908C146.098 14.0908 145.223 12.5459 145.223 10.0713V10.0576C145.223 7.58301 146.098 6.05176 147.602 6.05176C149.105 6.05176 149.994 7.58301 149.994 10.0576V10.0713C149.994 12.5459 149.105 14.0908 147.602 14.0908ZM154.472 10.0029C155.716 10.0029 156.468 9.05273 156.468 7.52832V7.52148C156.468 6.00391 155.716 5.05371 154.472 5.05371C153.228 5.05371 152.476 6.00391 152.476 7.52148V7.52832C152.476 9.05273 153.228 10.0029 154.472 10.0029ZM154.916 15L161.232 5.13574H160.125L153.795 15H154.916ZM154.472 9.18262C153.809 9.18262 153.426 8.56738 153.426 7.52832V7.52148C153.426 6.48242 153.809 5.87402 154.472 5.87402C155.135 5.87402 155.518 6.48242 155.518 7.52148V7.52832C155.518 8.56738 155.135 9.18262 154.472 9.18262ZM160.549 15.082C161.793 15.082 162.545 14.1318 162.545 12.6074V12.6006C162.545 11.083 161.793 10.1328 160.549 10.1328C159.305 10.1328 158.553 11.083 158.553 12.6006V12.6074C158.553 14.1318 159.305 15.082 160.549 15.082ZM160.549 14.2617C159.886 14.2617 159.503 13.6465 159.503 12.6074V12.6006C159.503 11.5615 159.886 10.9531 160.549 10.9531C161.212 10.9531 161.595 11.5615 161.595 12.6006V12.6074C161.595 13.6465 161.212 14.2617 160.549 14.2617Z" fill="#FFB800"/>
<path d="M0 31C0 29.3431 1.34315 28 3 28H153C154.657 28 156 29.3431 156 31C156 32.6569 154.657 34 153 34H3C1.34315 34 0 32.6569 0 31Z" fill="#DEE6F5"/>
<path d="M0 31C0 29.3431 1.34315 28 3 28H67V34H3C1.34315 34 0 32.6569 0 31Z" fill="#FFD500"/>
</svg>
